<svg width="13" height="13" viewBox="0 0 13 13" fill="none" xmlns="http://www.w3.org/2000/svg">
<path d="M12.7081 10.9986L9.59875 7.88891C10.0835 7.09324 10.3392 6.17919 10.3376 5.24748C10.3376 2.43571 7.90132 6.65387e-08 5.08982 6.65387e-08C4.42139 -0.000108026 3.75948 0.131483 3.1419 0.387257C2.52433 0.64303 1.96319 1.01798 1.49053 1.49068C1.01788 1.96338 0.642969 2.52457 0.38722 3.1422C0.13147 3.75984 -0.000108016 4.42181 6.65324e-08 5.09031C6.65324e-08 7.90125 2.4363 10.3378 5.24698 10.3378C6.1479 10.3386 7.0327 10.0988 7.80999 9.64328L10.9358 12.771C11.0828 12.9177 11.2819 13 11.4895 13C11.6971 13 11.8963 12.9177 12.0433 12.771L12.8192 11.9951C13.1244 11.6898 13.0134 11.3038 12.7081 10.9986ZM1.56661 5.09031C1.5665 4.62752 1.65755 4.16924 1.83456 3.74165C2.01157 3.31406 2.27107 2.92553 2.59824 2.59825C2.92541 2.27097 3.31385 2.01135 3.74136 1.83423C4.16887 1.6571 4.62708 1.56593 5.08982 1.56593C7.03656 1.56593 8.77102 3.29973 8.77102 5.24748C8.7708 6.18213 8.39945 7.07845 7.73861 7.73935C7.07777 8.40025 6.18154 8.77164 5.24698 8.77185C3.30024 8.77103 1.56661 7.03641 1.56661 5.09031Z" fill="#5F489D"/>
</svg>
